<svg xmlns="http://www.w3.org/2000/svg" viewBox="0 0 1600 1000">
  <defs>
    <linearGradient id="g" x1="0" x2="1" y1="0" y2="1">
      <stop offset="0%" stop-color="#37506A"/>
      <stop offset="100%" stop-color="#9FCB8D"/>
    </linearGradient>
  </defs>
  <rect width="1600" height="1000" fill="url(#g)"/>
  <circle cx="1220" cy="200" r="120" fill="#ffffff20"/>
  <path d="M530 680c120-220 340-340 520-300 110 25 190 95 250 220-110-70-190-90-280-70-70 15-135 50-195 98-70 57-130 84-210 82-49-1-86-10-125-30 15 3 24 4 40 0z" fill="#0e1720aa"/>
  <path d="M860 450c70-40 140-42 210-10-52 16-89 35-128 67-60 48-94 102-110 188-20-100-9-170 28-245z" fill="#f4f4f4b0"/>
  <text x="100" y="860" fill="#ffffff" font-size="64" font-family="Inter, Arial, sans-serif" font-weight="700">Fotografía principal</text>
  <text x="100" y="920" fill="#e8edf5" font-size="34" font-family="Inter, Arial, sans-serif">Reemplazar por una imagen real del ave</text>
</svg>
